<?xml version="1.0" standalone="no"?>
<!DOCTYPE svg PUBLIC "-//W3C//DTD SVG 20010904//EN"
 "http://www.w3.org/TR/2001/REC-SVG-20010904/DTD/svg10.dtd">
<svg version="1.0" xmlns="http://www.w3.org/2000/svg"
 width="200.000000pt" height="200.000000pt" viewBox="0 0 200.000000 200.000000"
 preserveAspectRatio="xMidYMid meet">
<metadata>
Created by potrace 1.14, written by Peter Selinger 2001-2017
</metadata>
<g transform="translate(0.000000,200.000000) scale(0.100000,-0.100000)"
fill="#000000" stroke="none">
<path d="M980 1733 c-46 -18 -128 -88 -195 -168 -51 -61 -115 -223 -115 -292
0 -13 -4 -23 -8 -23 -15 0 -128 -114 -159 -160 -63 -94 -98 -201 -102 -311 -2
-73 3 -81 75 -118 76 -37 173 -58 264 -56 99 3 131 8 203 35 l52 20 75 -26
c140 -49 306 -40 447 21 72 32 86 58 80 142 -14 166 -101 325 -240 440 -18 14
-27 31 -27 51 0 44 -43 165 -82 229 -41 70 -130 160 -190 196 -48 28 -53 29
-78 20z m86 -207 c49 -51 91 -118 109 -175 7 -22 5 -23 -21 -17 -95 24 -188
24 -306 1 -16 -3 -28 -2 -28 1 0 4 15 36 32 72 32 64 126 172 150 172 6 0 35
-24 64 -54z m61 -332 c34 -9 64 -22 67 -30 8 -20 -20 -116 -50 -176 -31 -60
-120 -158 -144 -158 -45 0 -168 173 -184 260 -3 19 -8 45 -10 56 -5 27 42 50
124 62 67 10 116 6 197 -14z m-394 -270 c14 -27 47 -76 72 -108 26 -31 44 -60
40 -64 -4 -4 -50 -7 -103 -7 -119 0 -202 24 -202 58 0 62 49 177 102 242 l32
38 17 -54 c8 -30 27 -77 42 -105z m669 52 c27 -52 48 -113 54 -157 5 -32 3
-37 -23 -47 -82 -31 -161 -39 -247 -27 l-44 7 50 62 c54 66 114 179 124 235
l7 35 29 -34 c16 -19 39 -53 50 -74z"/>
<path d="M410 1527 c-81 -21 -126 -85 -118 -169 9 -87 81 -150 165 -143 91 7
148 71 147 163 -2 102 -96 175 -194 149z"/>
<path d="M1485 1513 c-90 -48 -116 -149 -60 -235 79 -120 269 -73 288 72 15
121 -123 220 -228 163z"/>
<path d="M929 557 c-65 -33 -92 -78 -87 -148 8 -112 93 -172 204 -146 35 9 88
59 102 97 15 41 7 107 -19 144 -47 68 -127 90 -200 53z"/>
</g>
</svg>
